:SAMPLES-PER-SECOND 30
:FULLY-SPECIFIED
:DEGREES
1
root  67.6142 40.5789 -29.9375 174.747 -83.9427 -175.031
RightUpLeg  0.89372 -7.80605 -5.78119
RightLeg  1.8801 -5.37419 3.21362
RightFoot  -0.60694 -0.0494102 0.439279
RightToes  1.16414e-010 0 -3.6325e-017
Spine  -0.692454 1.71824 2.16376
Spine1  6.20253 2.06128 -1.56292
HEad  -9.64692 1.68259 1.12147
LeftShoulder1  1.01121 -1.59207 -12.6873
LeftArm  -15.5219 6.71345 -0.271463
LeftForeArm  8.05942 0.140006 -2.61277
LeftHand  -0.244104 0.0205437 5.32207
RightShoulder  0.753132 0.749643 10.4709
RightArm  -20.584 2.19271 -0.178457
RightForeArm  -1.33392 0.389938 3.40529
RightHand  -0.975883 1.96918 -15.5127
LeftUpLeg  2.26767 5.9245 3.3086
LeftLeg  0.568289 18.039 -4.61114
LeftFoot  -2.35288 -0.0321961 0.629482
LeftToes  2.00086e-010 -2.05915e-011 4.26721e-011
2
root  67.6101 40.5789 -29.9371 174.771 -83.9269 -175.044
RightUpLeg  0.888206 -7.80613 -5.77973
RightLeg  1.8807 -5.36663 3.21266
RightFoot  -0.630406 -0.0483156 0.422288
RightToes  1.16414e-010 0 -3.6325e-017
Spine  -0.82048 1.69681 2.10448
Spine1  6.38017 2.01054 -1.43894
HEad  -9.68688 1.69154 1.04126
LeftShoulder1  1.02507 -1.61415 -12.8908
LeftArm  -15.5203 6.74007 -0.166914
LeftForeArm  8.1008 0.119684 -2.60817
LeftHand  -0.244104 0.0205437 5.32207
RightShoulder  0.774394 0.90293 10.3237
RightArm  -20.6011 2.12629 -0.16457
RightForeArm  -1.37784 0.374921 3.38933
RightHand  -0.980533 1.95909 -15.6052
LeftUpLeg  2.26773 5.93801 3.31714
LeftLeg  0.568166 18.0435 -4.62608
LeftFoot  -2.36391 -0.0303818 0.601285
LeftToes  2.00086e-010 -2.05915e-011 4.26721e-011
3
root  67.6025 40.5789 -29.9355 174.804 -83.8988 -175.057
RightUpLeg  0.874032 -7.80797 -5.77888
RightLeg  1.88513 -5.35007 3.21119
RightFoot  -0.658067 -0.0498138 0.445544
RightToes  1.16414e-010 0 -3.6325e-017
Spine  -0.938933 1.66455 2.0502
Spine1  6.53098 1.95073 -1.32955
HEad  -9.64279 1.69212 0.927003
LeftShoulder1  1.05336 -1.68955 -13.1711
LeftArm  -15.4727 6.82993 0.00783844
LeftForeArm  8.28997 0.0573116 -2.61052
LeftHand  -0.244104 0.0205437 5.32207
RightShoulder  0.79872 1.07712 10.1713
RightArm  -20.6157 2.06946 -0.113132
RightForeArm  -1.64453 0.291996 3.38012
RightHand  -1.01997 2.10621 -15.9112
LeftUpLeg  2.26951 5.96389 3.32991
LeftLeg  0.567708 18.0399 -4.6519
LeftFoot  -2.38813 -0.0306843 0.605986
LeftToes  2.00086e-010 -2.05915e-011 4.26721e-011
4
root  67.5915 40.5789 -29.9329 174.894 -83.8964 -175.14
RightUpLeg  0.87962 -7.82354 -5.80231
RightLeg  1.89663 -5.33321 3.21637
RightFoot  -0.681052 -0.0532956 0.499589
RightToes  1.16414e-010 0 -3.6325e-017
Spine  -0.891006 1.63737 2.00157
Spine1  6.4538 1.91151 -1.28093
HEad  -9.35976 1.7705 0.802912
LeftShoulder1  1.08993 -1.81744 -13.3948
LeftArm  -15.3672 6.97415 0.19985
LeftForeArm  8.44803 0.0154036 -2.62478
LeftHand  -0.244104 0.0205437 5.32207
RightShoulder  0.801675 1.10072 10.1437
RightArm  -20.73 2.06931 -0.103422
RightForeArm  -0.773717 0.102669 3.26284
RightHand  -1.07338 2.56464 -15.8009
LeftUpLeg  2.28327 5.97326 3.32394
LeftLeg  0.560765 18.0194 -4.67232
LeftFoot  -2.39885 -0.0316897 0.621612
LeftToes  2.00086e-010 -2.05915e-011 4.26721e-011
5
root  67.5778 40.5787 -29.9295 175.061 -83.9204 -175.314
RightUpLeg  0.90955 -7.86488 -5.85048
RightLeg  1.90852 -5.30953 3.23465
RightFoot  -0.703906 -0.0542609 0.514573
RightToes  1.16414e-010 0 -3.6325e-017
Spine  -0.747804 1.62207 1.94438
Spine1  6.28658 1.89573 -1.26815
HEad  -9.02403 1.86599 0.723529
LeftShoulder1  1.10952 -1.89207 -13.4845
LeftArm  -15.3231 7.06444 0.272689
LeftForeArm  8.47985 0.0569741 -2.61804
LeftHand  -0.244104 0.0205437 5.32207
RightShoulder  0.784339 0.974165 10.2603
RightArm  -20.984 2.11216 -0.228829
RightForeArm  1.59609 -0.0243214 3.01427
RightHand  -1.02548 2.69385 -14.8788
LeftUpLeg  2.31738 5.95473 3.29351
LeftLeg  0.539746 18.0159 -4.67586
LeftFoot  -2.39552 -0.0315934 0.620115
LeftToes  2.00086e-010 -2.05915e-011 4.26721e-011
6
root  67.5642 40.5783 -29.9276 175.178 -83.9164 -175.431
RightUpLeg  0.927092 -7.88774 -5.87505
RightLeg  1.91612 -5.2763 3.24328
RightFoot  -0.725908 -0.0511498 0.466282
RightToes  1.16414e-010 0 -3.6325e-017
Spine  -0.604824 1.62667 1.9248
Spine1  6.15594 1.91423 -1.31402
HEad  -8.73402 1.93563 0.749999
LeftShoulder1  1.09316 -1.82799 -13.4165
LeftArm  -15.3675 7.0215 0.135214
LeftForeArm  8.63816 0.122317 -2.59487
LeftHand  -0.244104 0.0205437 5.32207
RightShoulder  0.755888 0.764014 10.4765
RightArm  -20.7093 2.23816 -0.310188
RightForeArm  0.740899 0.0433004 3.17776
RightHand  -1.01023 2.42382 -15.1512
LeftUpLeg  2.34384 5.93738 3.27068
LeftLeg  0.52828 18.049 -4.66913
LeftFoot  -2.41432 -0.0313007 0.615566
LeftToes  2.00086e-010 -2.05915e-011 4.26721e-011
